<?xml version="1.0" encoding="UTF-8"?>
<svg version="1.1" viewBox="0 0 1300 800" xmlns="http://www.w3.org/2000/svg">
<g fill="#ff5722">
<path d="m16518 523.88-119.98 65.335c-119.98 65.735-359.94 195.8-599.94 204.37-240 8.5696-480.03-106.36-720.04-154.99-240.01-49.23-480.01-32.161-720 8.4087-239.99 40.57-479.97 106.64-719.97 98.209-240-8.4304-480.03-89.361-720.04-138.59-240.01-48.63-480.02-65.561-720-16.191-239.99 48.77-479.95 163.84-719.94 220.71-239.98 57.27-479.98 57.339-719.99 32.909-240.01-24.43-480.02-73.361-720.02-73.291-240 0.0696-479.99 49.139-719.98 73.709-239.99 24.57-479.99 24.639-719.99 32.909-240 7.8696-479.99 24.939-719.99 32.809-240 8.2696-480 8.3391-720-16.091-240.01-24.43-480.02-73.361-720.03-105.99-240.01-32.23-480.01-49.161-720.02-56.891-240-8.1304-480-8.0609-720 8.3087-240 16.77-479.99 48.839-719.99 49.209-240-0.23044-480.01-32.161-720.02-65.091-240.01-32.93-480.02-64.861-720.02-56.991-240 8.2696-479.98 57.339-719.98 65.609-240 7.8696-480.01-24.061-720-7.9913-240 16.07-479.98 82.139-719.98 73.709-240-8.4304-480.03-89.361-720.03-114.09-240.01-24.13-480 7.9391-599.99 24.674l-120 16.335-0.071-245 120-0.0348c120-0.0348 360-0.10435 600-0.17392 240-0.0696 480-0.13913 720-0.2087 240-0.0696 480-0.13913 720-0.2087 240-0.0696 480-0.13913 720-0.2087 240-0.0696 480-0.13913 720-0.2087 240-0.0696 480-0.13913 720-0.2087 240-0.0696 480-0.13913 720-0.2087 240-0.0696 480-0.13913 720-0.2087 240-0.0696 480-0.13913 720-0.2087 240-0.0696 480-0.13913 720-0.2087 240-0.0696 480-0.13913 720-0.2087 240-0.0696 480-0.13913 720-0.2087 240-0.0696 480-0.13913 720-0.2087 240-0.0696 480-0.13913 720-0.2087 240-0.0696 480-0.13913 720-0.2087 240-0.0696 480-0.13913 720-0.2087 240-0.0696 480-0.13913 720-0.2087 240-0.0696 480-0.13913 720-0.2087 240-0.0696 480-0.13913 720-0.2087 240-0.0696 480-0.13913 720-0.2087 240-0.0696 480-0.13913 720-0.2087 240-0.0696 480-0.13913 720-0.2087 240-0.0696 480-0.13913 720-0.2087 240-0.0696 480-0.13913 600-0.17392l120-0.0348z"/>
<rect x="-201.49" y="-109.9" width="1587.5" height="634.99" ry="1.573" stroke-opacity="0"/>
</g>
</svg>
