<?xml version="1.0" standalone="no"?>
<svg xmlns:xlink="http://www.w3.org/1999/xlink" id="wave" style="transform:rotate(0deg); transition: 0.3s" viewBox="0 0 1440 120" version="1.1" xmlns="http://www.w3.org/2000/svg"><defs><linearGradient id="sw-gradient-0" x1="0" x2="0" y1="1" y2="0"><stop stop-color="rgba(255, 87, 34, 1)" offset="0%"/><stop stop-color="rgba(255, 87, 34, 1)" offset="100%"/></linearGradient></defs><path style="transform:translate(0, 0px); opacity:1" fill="url(#sw-gradient-0)" d="M0,108L120,92C240,76,480,44,720,42C960,40,1200,68,1440,80C1680,92,1920,88,2160,78C2400,68,2640,52,2880,54C3120,56,3360,76,3600,88C3840,100,4080,104,4320,92C4560,80,4800,52,5040,38C5280,24,5520,24,5760,30C6000,36,6240,48,6480,48C6720,48,6960,36,7200,30C7440,24,7680,24,7920,22C8160,20,8400,16,8640,14C8880,12,9120,12,9360,18C9600,24,9840,36,10080,44C10320,52,10560,56,10800,58C11040,60,11280,60,11520,56C11760,52,12000,44,12240,44C12480,44,12720,52,12960,60C13200,68,13440,76,13680,74C13920,72,14160,60,14400,58C14640,56,14880,64,15120,60C15360,56,15600,40,15840,42C16080,44,16320,64,16560,70C16800,76,17040,68,17160,64L17280,60L17280,120L17160,120C17040,120,16800,120,16560,120C16320,120,16080,120,15840,120C15600,120,15360,120,15120,120C14880,120,14640,120,14400,120C14160,120,13920,120,13680,120C13440,120,13200,120,12960,120C12720,120,12480,120,12240,120C12000,120,11760,120,11520,120C11280,120,11040,120,10800,120C10560,120,10320,120,10080,120C9840,120,9600,120,9360,120C9120,120,8880,120,8640,120C8400,120,8160,120,7920,120C7680,120,7440,120,7200,120C6960,120,6720,120,6480,120C6240,120,6000,120,5760,120C5520,120,5280,120,5040,120C4800,120,4560,120,4320,120C4080,120,3840,120,3600,120C3360,120,3120,120,2880,120C2640,120,2400,120,2160,120C1920,120,1680,120,1440,120C1200,120,960,120,720,120C480,120,240,120,120,120L0,120Z"/></svg>