<?xml version="1.0" encoding="UTF-8"?>
<svg style="transform:rotate(180deg);transition:0.3s" version="1.1" viewBox="0 0 1440 120" xmlns="http://www.w3.org/2000/svg">
<path d="m7338.9 28.881-60.002 1.9334c-60.002 1.9334-180.01 5.8003-300.02 17.667-120.01 11.867-240.04 31.734-360.04 37.601-120.01 5.8669-240-2.2663-359.98-14.399-119.99-12.133-239.97-28.266-359.96-38.399s-239.98-14.266-360-0.39942c-120.02 13.867-240.05 45.734-360.07 63.601s-240.02 21.734-360.02 19.601c-120-2.1331-239.99-10.266-359.98-20.399s-239.98-22.266-359.98-18.399c-120 3.8669-240.03 23.734-360.03 25.601-120 1.8669-239.98-14.266-359.97-28.399-119.98-14.133-239.97-26.266-359.96-36.399s-239.98-18.266-359.99-8.3994c-120.01 9.8669-240.04 37.734-360.06 55.601s-240.03 25.734-360.02 17.601c-119.99-8.1331-239.96-32.266-359.96-36.399-120-4.1331-240.01 11.734-360.02 21.601-120.01 9.8669-240.02 13.734-360.01 9.6006-120-4.1331-239.98-16.266-359.97-24.399-119.99-8.1331-239.99-12.266-359.98-20.399-119.99-8.1331-239.98-20.266-359.98-18.399-120 1.8669-240.02 17.734-360.02 19.601-120 1.8669-239.99-10.266-359.98-18.399-119.99-8.1331-239.99-12.266-299.98-14.333l-59.998-2.0666 0.027-24 60 0.066569c60 0.066569 180 0.19971 300 0.33285s240 0.26628 360 0.39942l3600 3.9942s240 0.26628 360 0.39942 240 0.26628 360 0.39942l720 0.79884s240 0.26628 360 0.39942l2520 2.7959z" fill="#ff5722"/>
</svg>
